<?xml version="1.0" encoding="utf-8" standalone="no"?>
<!DOCTYPE svg PUBLIC "-//W3C//DTD SVG 1.1//EN"
  "http://www.w3.org/Graphics/SVG/1.1/DTD/svg11.dtd">
<svg xmlns:xlink="http://www.w3.org/1999/xlink" width="1070.173722pt" height="294.560331pt" viewBox="0 0 1070.173722 294.560331" xmlns="http://www.w3.org/2000/svg" version="1.1">
 <metadata>
  <rdf:RDF xmlns:dc="http://purl.org/dc/elements/1.1/" xmlns:cc="http://creativecommons.org/ns#" xmlns:rdf="http://www.w3.org/1999/02/22-rdf-syntax-ns#">
   <cc:Work>
    <dc:type rdf:resource="http://purl.org/dc/dcmitype/StillImage"/>
    <dc:date>2026-06-22T16:53:47.357145</dc:date>
    <dc:format>image/svg+xml</dc:format>
    <dc:creator>
     <cc:Agent>
      <dc:title>Matplotlib v3.9.4, https://matplotlib.org/</dc:title>
     </cc:Agent>
    </dc:creator>
   </cc:Work>
  </rdf:RDF>
 </metadata>
 <defs>
  <style type="text/css">*{stroke-linejoin: round; stroke-linecap: butt}</style>
 </defs>
 <g id="figure_1">
  <g id="patch_1">
   <path d="M 0 294.560331 
L 1070.173722 294.560331 
L 1070.173722 0 
L 0 0 
z
" style="fill: #ffffff"/>
  </g>
  <g id="axes_1">
   <g id="patch_2">
    <path d="M 49.3312 242.489528 
L 346.478707 242.489528 
L 346.478707 22.318125 
L 49.3312 22.318125 
z
" style="fill: #ffffff"/>
   </g>
   <g id="matplotlib.axis_1">
    <g id="xtick_1">
     <g id="line2d_1">
      <defs>
       <path id="m6be1768b1f" d="M 0 0 
L 0 3.5 
" style="stroke: #000000; stroke-width: 0.8"/>
      </defs>
      <g>
       <use xlink:href="#m6be1768b1f" x="62.837905" y="242.489528" style="stroke: #000000; stroke-width: 0.8"/>
      </g>
     </g>
     <g id="text_1">
      <text style="font: 10px 'DejaVu Sans', 'Bitstream Vera Sans', 'Computer Modern Sans Serif', 'Lucida Grande', 'Verdana', 'Geneva', 'Lucid', 'Arial', 'Helvetica', 'Avant Garde', sans-serif" transform="translate(10.999219 285.318405) rotate(-30)">neg_control</text>
     </g>
    </g>
    <g id="xtick_2">
     <g id="line2d_2">
      <g>
       <use xlink:href="#m6be1768b1f" x="116.864724" y="242.489528" style="stroke: #000000; stroke-width: 0.8"/>
      </g>
     </g>
     <g id="text_2">
      <text style="font: 10px 'DejaVu Sans', 'Bitstream Vera Sans', 'Computer Modern Sans Serif', 'Lucida Grande', 'Verdana', 'Geneva', 'Lucid', 'Arial', 'Helvetica', 'Avant Garde', sans-serif" transform="translate(89.095818 271.501999) rotate(-30)">S-UNT</text>
     </g>
    </g>
    <g id="xtick_3">
     <g id="line2d_3">
      <g>
       <use xlink:href="#m6be1768b1f" x="170.891544" y="242.489528" style="stroke: #000000; stroke-width: 0.8"/>
      </g>
     </g>
     <g id="text_3">
      <text style="font: 10px 'DejaVu Sans', 'Bitstream Vera Sans', 'Computer Modern Sans Serif', 'Lucida Grande', 'Verdana', 'Geneva', 'Lucid', 'Arial', 'Helvetica', 'Avant Garde', sans-serif" transform="translate(147.539367 268.951999) rotate(-30)">SLN1</text>
     </g>
    </g>
    <g id="xtick_4">
     <g id="line2d_4">
      <g>
       <use xlink:href="#m6be1768b1f" x="224.918363" y="242.489528" style="stroke: #000000; stroke-width: 0.8"/>
      </g>
     </g>
     <g id="text_4">
      <text style="font: 10px 'DejaVu Sans', 'Bitstream Vera Sans', 'Computer Modern Sans Serif', 'Lucida Grande', 'Verdana', 'Geneva', 'Lucid', 'Arial', 'Helvetica', 'Avant Garde', sans-serif" transform="translate(204.636518 267.179343) rotate(-30)">SLHi</text>
     </g>
    </g>
    <g id="xtick_5">
     <g id="line2d_5">
      <g>
       <use xlink:href="#m6be1768b1f" x="278.945183" y="242.489528" style="stroke: #000000; stroke-width: 0.8"/>
      </g>
     </g>
     <g id="text_5">
      <text style="font: 10px 'DejaVu Sans', 'Bitstream Vera Sans', 'Computer Modern Sans Serif', 'Lucida Grande', 'Verdana', 'Geneva', 'Lucid', 'Arial', 'Helvetica', 'Avant Garde', sans-serif" transform="translate(261.425146 265.584811) rotate(-30)">SE1</text>
     </g>
    </g>
    <g id="xtick_6">
     <g id="line2d_6">
      <g>
       <use xlink:href="#m6be1768b1f" x="332.972002" y="242.489528" style="stroke: #000000; stroke-width: 0.8"/>
      </g>
     </g>
     <g id="text_6">
      <text style="font: 10px 'DejaVu Sans', 'Bitstream Vera Sans', 'Computer Modern Sans Serif', 'Lucida Grande', 'Verdana', 'Geneva', 'Lucid', 'Arial', 'Helvetica', 'Avant Garde', sans-serif" transform="translate(315.451966 265.584811) rotate(-30)">SE2</text>
     </g>
    </g>
   </g>
   <g id="matplotlib.axis_2">
    <g id="ytick_1">
     <g id="line2d_7">
      <path d="M 49.3312 234.090483 
L 346.478707 234.090483 
" clip-path="url(#pe3ed9c4a64)" style="fill: none; stroke: #b0b0b0; stroke-opacity: 0.3; stroke-width: 0.8; stroke-linecap: square"/>
     </g>
     <g id="line2d_8">
      <defs>
       <path id="md993ca0ef5" d="M 0 0 
L -3.5 0 
" style="stroke: #000000; stroke-width: 0.8"/>
      </defs>
      <g>
       <use xlink:href="#md993ca0ef5" x="49.3312" y="234.090483" style="stroke: #000000; stroke-width: 0.8"/>
      </g>
     </g>
     <g id="text_7">
      <text style="font: 10px 'DejaVu Sans', 'Bitstream Vera Sans', 'Computer Modern Sans Serif', 'Lucida Grande', 'Verdana', 'Geneva', 'Lucid', 'Arial', 'Helvetica', 'Avant Garde', sans-serif; text-anchor: end" x="42.3312" y="237.889702" transform="rotate(-0 42.3312 237.889702)">0</text>
     </g>
    </g>
    <g id="ytick_2">
     <g id="line2d_9">
      <path d="M 49.3312 186.801098 
L 346.478707 186.801098 
" clip-path="url(#pe3ed9c4a64)" style="fill: none; stroke: #b0b0b0; stroke-opacity: 0.3; stroke-width: 0.8; stroke-linecap: square"/>
     </g>
     <g id="line2d_10">
      <g>
       <use xlink:href="#md993ca0ef5" x="49.3312" y="186.801098" style="stroke: #000000; stroke-width: 0.8"/>
      </g>
     </g>
     <g id="text_8">
      <text style="font: 10px 'DejaVu Sans', 'Bitstream Vera Sans', 'Computer Modern Sans Serif', 'Lucida Grande', 'Verdana', 'Geneva', 'Lucid', 'Arial', 'Helvetica', 'Avant Garde', sans-serif; text-anchor: end" x="42.3312" y="190.600316" transform="rotate(-0 42.3312 190.600316)">50</text>
     </g>
    </g>
    <g id="ytick_3">
     <g id="line2d_11">
      <path d="M 49.3312 139.511713 
L 346.478707 139.511713 
" clip-path="url(#pe3ed9c4a64)" style="fill: none; stroke: #b0b0b0; stroke-opacity: 0.3; stroke-width: 0.8; stroke-linecap: square"/>
     </g>
     <g id="line2d_12">
      <g>
       <use xlink:href="#md993ca0ef5" x="49.3312" y="139.511713" style="stroke: #000000; stroke-width: 0.8"/>
      </g>
     </g>
     <g id="text_9">
      <text style="font: 10px 'DejaVu Sans', 'Bitstream Vera Sans', 'Computer Modern Sans Serif', 'Lucida Grande', 'Verdana', 'Geneva', 'Lucid', 'Arial', 'Helvetica', 'Avant Garde', sans-serif; text-anchor: end" x="42.3312" y="143.310931" transform="rotate(-0 42.3312 143.310931)">100</text>
     </g>
    </g>
    <g id="ytick_4">
     <g id="line2d_13">
      <path d="M 49.3312 92.222327 
L 346.478707 92.222327 
" clip-path="url(#pe3ed9c4a64)" style="fill: none; stroke: #b0b0b0; stroke-opacity: 0.3; stroke-width: 0.8; stroke-linecap: square"/>
     </g>
     <g id="line2d_14">
      <g>
       <use xlink:href="#md993ca0ef5" x="49.3312" y="92.222327" style="stroke: #000000; stroke-width: 0.8"/>
      </g>
     </g>
     <g id="text_10">
      <text style="font: 10px 'DejaVu Sans', 'Bitstream Vera Sans', 'Computer Modern Sans Serif', 'Lucida Grande', 'Verdana', 'Geneva', 'Lucid', 'Arial', 'Helvetica', 'Avant Garde', sans-serif; text-anchor: end" x="42.3312" y="96.021546" transform="rotate(-0 42.3312 96.021546)">150</text>
     </g>
    </g>
    <g id="ytick_5">
     <g id="line2d_15">
      <path d="M 49.3312 44.932942 
L 346.478707 44.932942 
" clip-path="url(#pe3ed9c4a64)" style="fill: none; stroke: #b0b0b0; stroke-opacity: 0.3; stroke-width: 0.8; stroke-linecap: square"/>
     </g>
     <g id="line2d_16">
      <g>
       <use xlink:href="#md993ca0ef5" x="49.3312" y="44.932942" style="stroke: #000000; stroke-width: 0.8"/>
      </g>
     </g>
     <g id="text_11">
      <text style="font: 10px 'DejaVu Sans', 'Bitstream Vera Sans', 'Computer Modern Sans Serif', 'Lucida Grande', 'Verdana', 'Geneva', 'Lucid', 'Arial', 'Helvetica', 'Avant Garde', sans-serif; text-anchor: end" x="42.3312" y="48.732161" transform="rotate(-0 42.3312 48.732161)">200</text>
     </g>
    </g>
    <g id="text_12">
     <text style="font: 10px 'DejaVu Sans', 'Bitstream Vera Sans', 'Computer Modern Sans Serif', 'Lucida Grande', 'Verdana', 'Geneva', 'Lucid', 'Arial', 'Helvetica', 'Avant Garde', sans-serif; text-anchor: middle" x="17.164012" y="132.403826" transform="rotate(-90 17.164012 132.403826)">total polymer µm / FOV</text>
    </g>
   </g>
   <g id="line2d_17">
    <path d="M 62.837905 232.481737 
L 62.837905 224.407293 
" clip-path="url(#pe3ed9c4a64)" style="fill: none; stroke: #444444; stroke-width: 1.4; stroke-linecap: square"/>
   </g>
   <g id="line2d_18">
    <path d="M 116.864724 146.663431 
L 116.864724 32.325916 
" clip-path="url(#pe3ed9c4a64)" style="fill: none; stroke: #444444; stroke-width: 1.4; stroke-linecap: square"/>
   </g>
   <g id="line2d_19">
    <path d="M 170.891544 175.459584 
L 170.891544 114.960193 
" clip-path="url(#pe3ed9c4a64)" style="fill: none; stroke: #444444; stroke-width: 1.4; stroke-linecap: square"/>
   </g>
   <g id="line2d_20">
    <path d="M 224.918363 165.172733 
L 224.918363 90.804566 
" clip-path="url(#pe3ed9c4a64)" style="fill: none; stroke: #444444; stroke-width: 1.4; stroke-linecap: square"/>
   </g>
   <g id="line2d_21">
    <path d="M 278.945183 197.721089 
L 278.945183 152.787322 
" clip-path="url(#pe3ed9c4a64)" style="fill: none; stroke: #444444; stroke-width: 1.4; stroke-linecap: square"/>
   </g>
   <g id="line2d_22">
    <path d="M 332.972002 215.95324 
L 332.972002 181.566335 
" clip-path="url(#pe3ed9c4a64)" style="fill: none; stroke: #444444; stroke-width: 1.4; stroke-linecap: square"/>
   </g>
   <g id="patch_3">
    <path d="M 49.3312 242.489528 
L 49.3312 22.318125 
" style="fill: none; stroke: #000000; stroke-width: 0.8; stroke-linejoin: miter; stroke-linecap: square"/>
   </g>
   <g id="patch_4">
    <path d="M 346.478707 242.489528 
L 346.478707 22.318125 
" style="fill: none; stroke: #000000; stroke-width: 0.8; stroke-linejoin: miter; stroke-linecap: square"/>
   </g>
   <g id="patch_5">
    <path d="M 49.3312 242.489528 
L 346.478707 242.489528 
" style="fill: none; stroke: #000000; stroke-width: 0.8; stroke-linejoin: miter; stroke-linecap: square"/>
   </g>
   <g id="patch_6">
    <path d="M 49.3312 22.318125 
L 346.478707 22.318125 
" style="fill: none; stroke: #000000; stroke-width: 0.8; stroke-linejoin: miter; stroke-linecap: square"/>
   </g>
   <g id="text_13">
    <text style="font: 12px 'DejaVu Sans', 'Bitstream Vera Sans', 'Computer Modern Sans Serif', 'Lucida Grande', 'Verdana', 'Geneva', 'Lucid', 'Arial', 'Helvetica', 'Avant Garde', sans-serif; text-anchor: middle" x="197.904954" y="16.318125" transform="rotate(-0 197.904954 16.318125)">F-CONTROL — per-FOV aggregate</text>
   </g>
   <g id="PathCollection_1">
    <defs>
     <path id="m1c42a40c44" d="M 0 3.316625 
C 0.879579 3.316625 1.723251 2.967164 2.345208 2.345208 
C 2.967164 1.723251 3.316625 0.879579 3.316625 0 
C 3.316625 -0.879579 2.967164 -1.723251 2.345208 -2.345208 
C 1.723251 -2.967164 0.879579 -3.316625 0 -3.316625 
C -0.879579 -3.316625 -1.723251 -2.967164 -2.345208 -2.345208 
C -2.967164 -1.723251 -3.316625 -0.879579 -3.316625 0 
C -3.316625 0.879579 -2.967164 1.723251 -2.345208 2.345208 
C -1.723251 2.967164 -0.879579 3.316625 0 3.316625 
z
" style="stroke: #ffffff; stroke-width: 0.5"/>
    </defs>
    <g clip-path="url(#pe3ed9c4a64)">
     <use xlink:href="#m1c42a40c44" x="62.837905" y="227.900703" style="fill: #c1440e; stroke: #ffffff; stroke-width: 0.5"/>
    </g>
   </g>
   <g id="PathCollection_2">
    <g clip-path="url(#pe3ed9c4a64)">
     <use xlink:href="#m1c42a40c44" x="116.864724" y="82.928538" style="fill: #c1440e; stroke: #ffffff; stroke-width: 0.5"/>
    </g>
   </g>
   <g id="PathCollection_3">
    <g clip-path="url(#pe3ed9c4a64)">
     <use xlink:href="#m1c42a40c44" x="170.891544" y="143.603716" style="fill: #c1440e; stroke: #ffffff; stroke-width: 0.5"/>
    </g>
   </g>
   <g id="PathCollection_4">
    <g clip-path="url(#pe3ed9c4a64)">
     <use xlink:href="#m1c42a40c44" x="224.918363" y="122.235905" style="fill: #c1440e; stroke: #ffffff; stroke-width: 0.5"/>
    </g>
   </g>
   <g id="PathCollection_5">
    <g clip-path="url(#pe3ed9c4a64)">
     <use xlink:href="#m1c42a40c44" x="278.945183" y="175.234532" style="fill: #c1440e; stroke: #ffffff; stroke-width: 0.5"/>
    </g>
   </g>
   <g id="PathCollection_6">
    <g clip-path="url(#pe3ed9c4a64)">
     <use xlink:href="#m1c42a40c44" x="332.972002" y="200.12346" style="fill: #c1440e; stroke: #ffffff; stroke-width: 0.5"/>
    </g>
   </g>
  </g>
  <g id="axes_2">
   <g id="patch_7">
    <path d="M 407.578707 242.489528 
L 704.726214 242.489528 
L 704.726214 22.318125 
L 407.578707 22.318125 
z
" style="fill: #ffffff"/>
   </g>
   <g id="PolyCollection_1">
    <defs>
     <path id="m6e16524dff" d="M 453.343034 -62.098601 
L 424.062673 -62.098601 
L 421.257038 -77.105399 
L 421.085412 -89.05484 
L 423.136168 -98.984284 
L 426.162504 -107.478929 
L 429.082953 -114.901557 
L 431.422712 -121.492674 
L 433.138156 -127.419952 
L 434.337758 -132.804959 
L 435.163692 -137.738655 
L 435.757889 -142.290871 
L 436.222941 -146.516391 
L 436.59882 -150.458982 
L 436.888372 -154.154167 
L 437.101177 -157.631171 
L 437.265742 -160.914329 
L 437.41064 -164.024118 
L 437.549695 -166.977933 
L 437.682039 -169.790677 
L 437.797313 -172.475211 
L 437.887814 -175.042716 
L 437.96427 -177.502971 
L 438.051464 -179.864578 
L 438.16002 -182.135143 
L 438.270381 -184.321427 
L 438.351363 -186.429462 
L 438.388208 -188.464658 
L 438.390441 -190.431879 
L 438.381623 -192.335521 
L 438.384981 -194.179565 
L 438.411585 -195.967629 
L 438.457041 -197.703012 
L 438.509179 -199.38873 
L 438.557582 -201.027546 
L 438.595746 -202.622001 
L 438.618786 -204.174432 
L 438.623925 -205.686998 
L 438.614185 -207.161696 
L 438.59973 -208.600374 
L 438.592692 -210.004751 
L 438.598481 -211.376425 
L 438.612116 -212.716884 
L 438.623711 -214.027516 
L 438.627246 -215.309621 
L 438.624512 -216.564415 
L 438.622461 -217.793035 
L 438.627302 -218.996553 
L 438.63959 -220.175972 
L 438.653437 -221.33224 
L 438.660507 -222.466248 
L 438.656199 -223.578837 
L 438.643451 -224.6708 
L 438.630655 -225.742889 
L 438.625181 -226.795814 
L 438.62872 -227.830249 
L 438.638351 -228.846831 
L 438.650357 -229.846166 
L 438.6621 -230.828831 
L 438.671772 -231.795371 
L 438.678412 -232.746307 
L 438.682598 -233.682136 
L 438.686142 -234.60333 
L 438.690354 -235.510339 
L 438.694786 -236.403594 
L 438.697812 -237.283506 
L 438.697814 -238.150467 
L 438.693696 -239.004854 
L 438.685352 -239.847025 
L 438.674787 -240.677325 
L 438.666336 -241.496084 
L 438.664203 -242.303619 
L 438.668893 -243.100233 
L 438.676583 -243.886217 
L 438.682633 -244.661852 
L 438.685476 -245.427407 
L 438.68668 -246.183139 
L 438.6877 -246.929299 
L 438.68763 -247.666125 
L 438.684648 -248.393849 
L 438.679133 -249.112691 
L 438.674272 -249.822868 
L 438.673079 -250.524584 
L 438.675506 -251.218039 
L 438.679303 -251.903425 
L 438.682839 -252.580929 
L 438.685696 -253.250729 
L 438.687184 -253.912998 
L 438.686177 -254.567904 
L 438.682612 -255.215609 
L 438.677962 -255.85627 
L 438.673798 -256.490037 
L 438.67056 -257.117059 
L 438.668077 -257.737476 
L 438.666737 -258.351427 
L 438.667269 -258.959045 
L 438.669354 -259.560459 
L 438.671539 -260.155795 
L 438.67309 -260.745174 
L 438.675121 -261.328715 
L 438.679231 -261.906532 
L 438.726475 -261.906532 
L 438.726475 -261.906532 
L 438.730585 -261.328715 
L 438.732616 -260.745174 
L 438.734167 -260.155795 
L 438.736352 -259.560459 
L 438.738437 -258.959045 
L 438.738969 -258.351427 
L 438.737629 -257.737476 
L 438.735147 -257.117059 
L 438.731909 -256.490037 
L 438.727745 -255.85627 
L 438.723094 -255.215609 
L 438.71953 -254.567904 
L 438.718522 -253.912998 
L 438.72001 -253.250729 
L 438.722867 -252.580929 
L 438.726404 -251.903425 
L 438.7302 -251.218039 
L 438.732627 -250.524584 
L 438.731435 -249.822868 
L 438.726574 -249.112691 
L 438.721058 -248.393849 
L 438.718076 -247.666125 
L 438.718006 -246.929299 
L 438.719026 -246.183139 
L 438.72023 -245.427407 
L 438.723073 -244.661852 
L 438.729124 -243.886217 
L 438.736813 -243.100233 
L 438.741503 -242.303619 
L 438.73937 -241.496084 
L 438.730919 -240.677325 
L 438.720355 -239.847025 
L 438.712011 -239.004854 
L 438.707892 -238.150467 
L 438.707895 -237.283506 
L 438.71092 -236.403594 
L 438.715353 -235.510339 
L 438.719564 -234.60333 
L 438.723108 -233.682136 
L 438.727294 -232.746307 
L 438.733935 -231.795371 
L 438.743606 -230.828831 
L 438.755349 -229.846166 
L 438.767355 -228.846831 
L 438.776987 -227.830249 
L 438.780525 -226.795814 
L 438.775051 -225.742889 
L 438.762255 -224.6708 
L 438.749507 -223.578837 
L 438.7452 -222.466248 
L 438.752269 -221.33224 
L 438.766116 -220.175972 
L 438.778404 -218.996553 
L 438.783246 -217.793035 
L 438.781194 -216.564415 
L 438.77846 -215.309621 
L 438.781995 -214.027516 
L 438.793591 -212.716884 
L 438.807225 -211.376425 
L 438.813014 -210.004751 
L 438.805976 -208.600374 
L 438.791522 -207.161696 
L 438.781781 -205.686998 
L 438.78692 -204.174432 
L 438.80996 -202.622001 
L 438.848124 -201.027546 
L 438.896527 -199.38873 
L 438.948666 -197.703012 
L 438.994121 -195.967629 
L 439.020725 -194.179565 
L 439.024084 -192.335521 
L 439.015266 -190.431879 
L 439.017498 -188.464658 
L 439.054343 -186.429462 
L 439.135325 -184.321427 
L 439.245687 -182.135143 
L 439.354243 -179.864578 
L 439.441437 -177.502971 
L 439.517892 -175.042716 
L 439.608393 -172.475211 
L 439.723668 -169.790677 
L 439.856011 -166.977933 
L 439.995067 -164.024118 
L 440.139964 -160.914329 
L 440.304529 -157.631171 
L 440.517335 -154.154167 
L 440.806887 -150.458982 
L 441.182765 -146.516391 
L 441.647817 -142.290871 
L 442.242014 -137.738655 
L 443.067948 -132.804959 
L 444.26755 -127.419952 
L 445.982994 -121.492674 
L 448.322754 -114.901557 
L 451.243203 -107.478929 
L 454.269539 -98.984284 
L 456.320294 -89.05484 
L 456.148668 -77.105399 
L 453.343034 -62.098601 
z
" style="stroke: #c1440e; stroke-opacity: 0.7"/>
    </defs>
    <g clip-path="url(#pae6ed833f4)">
     <use xlink:href="#m6e16524dff" x="0" y="294.560331" style="fill: #c1440e; fill-opacity: 0.7; stroke: #c1440e; stroke-opacity: 0.7"/>
    </g>
   </g>
   <g id="PolyCollection_2">
    <defs>
     <path id="meb04e1cc43" d="M 497.71356 -62.078594 
L 473.651833 -62.078594 
L 469.458689 -77.166539 
L 468.065255 -89.167271 
L 469.036805 -99.132067 
L 470.935023 -107.652556 
L 472.846893 -115.094901 
L 474.542418 -121.701555 
L 476.019962 -127.641393 
L 477.276669 -133.036764 
L 478.320613 -137.979156 
L 479.190481 -142.538775 
L 479.918809 -146.770671 
L 480.526199 -150.718813 
L 481.052767 -154.418873 
L 481.547024 -157.900192 
L 482.017609 -161.187198 
L 482.42805 -164.300439 
L 482.752107 -167.257368 
L 483.011994 -170.072935 
L 483.247315 -172.760041 
L 483.466548 -175.329898 
L 483.650174 -177.792313 
L 483.794249 -180.15591 
L 483.921328 -182.428314 
L 484.04621 -184.616303 
L 484.169205 -186.725924 
L 484.299075 -188.762597 
L 484.439491 -190.731199 
L 484.566509 -192.636134 
L 484.652129 -194.48139 
L 484.698043 -196.270595 
L 484.733288 -198.007052 
L 484.782054 -199.693784 
L 484.843933 -201.333558 
L 484.908865 -202.92892 
L 484.973365 -204.48221 
L 485.037104 -205.995593 
L 485.098373 -207.471066 
L 485.155575 -208.910482 
L 485.205591 -210.315563 
L 485.241727 -211.687907 
L 485.260514 -213.029007 
L 485.268776 -214.340252 
L 485.278995 -215.622943 
L 485.298971 -216.878298 
L 485.327258 -218.107457 
L 485.357219 -219.311491 
L 485.382617 -220.491407 
L 485.401375 -221.648151 
L 485.417302 -222.782618 
L 485.435762 -223.895648 
L 485.457187 -224.988036 
L 485.476686 -226.060535 
L 485.489903 -227.113856 
L 485.497893 -228.148672 
L 485.505664 -229.165623 
L 485.517716 -230.165314 
L 485.533791 -231.148323 
L 485.548283 -232.115196 
L 485.555927 -233.066455 
L 485.55727 -234.002596 
L 485.558038 -234.924092 
L 485.562821 -235.831395 
L 485.571166 -236.724935 
L 485.581885 -237.605122 
L 485.594968 -238.472352 
L 485.60742 -239.326998 
L 485.61585 -240.169422 
L 485.622165 -240.999968 
L 485.629552 -241.818966 
L 485.636148 -242.626734 
L 485.637428 -243.423574 
L 485.633751 -244.209778 
L 485.631616 -244.985628 
L 485.634991 -245.751391 
L 485.640618 -246.507328 
L 485.644647 -247.253686 
L 485.647323 -247.990706 
L 485.649558 -248.718618 
L 485.650723 -249.437645 
L 485.651475 -250.148001 
L 485.654104 -250.849893 
L 485.658396 -251.543519 
L 485.661416 -252.229073 
L 485.661919 -252.90674 
L 485.661369 -253.5767 
L 485.661081 -254.239126 
L 485.660998 -254.894185 
L 485.661001 -255.54204 
L 485.661608 -256.182846 
L 485.663285 -256.816757 
L 485.666116 -257.443919 
L 485.669658 -258.064473 
L 485.672426 -258.678559 
L 485.672824 -259.286308 
L 485.670999 -259.887851 
L 485.668659 -260.483314 
L 485.66745 -261.072817 
L 485.668413 -261.656479 
L 485.671795 -262.234415 
L 485.693597 -262.234415 
L 485.693597 -262.234415 
L 485.69698 -261.656479 
L 485.697943 -261.072817 
L 485.696734 -260.483314 
L 485.694393 -259.887851 
L 485.692568 -259.286308 
L 485.692966 -258.678559 
L 485.695735 -258.064473 
L 485.699276 -257.443919 
L 485.702108 -256.816757 
L 485.703785 -256.182846 
L 485.704391 -255.54204 
L 485.704395 -254.894185 
L 485.704311 -254.239126 
L 485.704023 -253.5767 
L 485.703473 -252.90674 
L 485.703977 -252.229073 
L 485.706996 -251.543519 
L 485.711288 -250.849893 
L 485.713917 -250.148001 
L 485.71467 -249.437645 
L 485.715835 -248.718618 
L 485.718069 -247.990706 
L 485.720745 -247.253686 
L 485.724774 -246.507328 
L 485.730402 -245.751391 
L 485.733777 -244.985628 
L 485.731641 -244.209778 
L 485.727964 -243.423574 
L 485.729245 -242.626734 
L 485.73584 -241.818966 
L 485.743227 -240.999968 
L 485.749543 -240.169422 
L 485.757972 -239.326998 
L 485.770424 -238.472352 
L 485.783507 -237.605122 
L 485.794226 -236.724935 
L 485.802572 -235.831395 
L 485.807354 -234.924092 
L 485.808122 -234.002596 
L 485.809465 -233.066455 
L 485.817109 -232.115196 
L 485.831601 -231.148323 
L 485.847676 -230.165314 
L 485.859728 -229.165623 
L 485.8675 -228.148672 
L 485.875489 -227.113856 
L 485.888706 -226.060535 
L 485.908205 -224.988036 
L 485.929631 -223.895648 
L 485.948091 -222.782618 
L 485.964018 -221.648151 
L 485.982775 -220.491407 
L 486.008174 -219.311491 
L 486.038135 -218.107457 
L 486.066421 -216.878298 
L 486.086397 -215.622943 
L 486.096616 -214.340252 
L 486.104878 -213.029007 
L 486.123665 -211.687907 
L 486.159801 -210.315563 
L 486.209817 -208.910482 
L 486.26702 -207.471066 
L 486.328288 -205.995593 
L 486.392028 -204.48221 
L 486.456528 -202.92892 
L 486.52146 -201.333558 
L 486.583339 -199.693784 
L 486.632104 -198.007052 
L 486.667349 -196.270595 
L 486.713264 -194.48139 
L 486.798883 -192.636134 
L 486.925902 -190.731199 
L 487.066317 -188.762597 
L 487.196188 -186.725924 
L 487.319182 -184.616303 
L 487.444065 -182.428314 
L 487.571144 -180.15591 
L 487.715219 -177.792313 
L 487.898844 -175.329898 
L 488.118078 -172.760041 
L 488.353399 -170.072935 
L 488.613285 -167.257368 
L 488.937343 -164.300439 
L 489.347783 -161.187198 
L 489.818368 -157.900192 
L 490.312625 -154.418873 
L 490.839193 -150.718813 
L 491.446583 -146.770671 
L 492.174912 -142.538775 
L 493.044779 -137.979156 
L 494.088723 -133.036764 
L 495.34543 -127.641393 
L 496.822975 -121.701555 
L 498.5185 -115.094901 
L 500.430369 -107.652556 
L 502.328587 -99.132067 
L 503.300137 -89.167271 
L 501.906703 -77.166539 
L 497.71356 -62.078594 
z
" style="stroke: #c1440e; stroke-opacity: 0.7"/>
    </defs>
    <g clip-path="url(#pae6ed833f4)">
     <use xlink:href="#meb04e1cc43" x="0" y="294.560331" style="fill: #c1440e; fill-opacity: 0.7; stroke: #c1440e; stroke-opacity: 0.7"/>
    </g>
   </g>
   <g id="PolyCollection_3">
    <defs>
     <path id="m213a146359" d="M 545.593828 -62.134546 
L 519.731251 -62.134546 
L 516.825292 -76.698285 
L 515.206637 -88.365631 
L 515.045098 -98.099707 
L 516.055877 -106.451047 
L 517.738185 -113.764066 
L 519.628845 -120.268637 
L 521.425366 -126.125845 
L 522.983703 -131.452963 
L 524.265461 -136.338027 
L 525.289084 -140.848814 
L 526.100108 -145.038616 
L 526.75478 -148.950097 
L 527.307803 -152.617941 
L 527.800552 -156.070727 
L 528.253701 -159.332285 
L 528.669551 -162.422689 
L 529.043217 -165.35901 
L 529.374914 -168.155886 
L 529.67454 -170.825963 
L 529.955419 -173.380241 
L 530.22283 -175.828348 
L 530.468136 -178.17876 
L 530.675228 -180.438975 
L 530.834983 -182.61566 
L 530.95555 -184.714771 
L 531.059333 -186.741647 
L 531.169137 -188.701095 
L 531.295092 -190.597456 
L 531.432164 -192.434667 
L 531.567807 -194.216306 
L 531.691624 -195.945637 
L 531.800212 -197.625643 
L 531.895985 -199.259061 
L 531.98236 -200.848405 
L 532.058825 -202.395991 
L 532.119653 -203.903958 
L 532.158024 -205.374282 
L 532.172663 -206.808799 
L 532.171135 -208.20921 
L 532.166454 -209.577099 
L 532.169388 -210.913944 
L 532.182481 -212.221121 
L 532.200326 -213.49992 
L 532.215626 -214.751546 
L 532.226089 -215.97713 
L 532.236585 -217.177733 
L 532.254969 -218.354354 
L 532.285358 -219.507932 
L 532.324766 -220.639353 
L 532.365611 -221.74945 
L 532.401132 -222.839014 
L 532.428925 -223.908791 
L 532.450634 -224.959485 
L 532.469316 -225.991766 
L 532.486843 -227.006268 
L 532.502636 -228.003594 
L 532.514106 -228.984315 
L 532.518588 -229.948974 
L 532.515625 -230.898091 
L 532.507916 -231.832157 
L 532.500293 -232.751642 
L 532.497744 -233.656996 
L 532.503762 -234.548645 
L 532.519343 -235.426998 
L 532.542577 -236.292446 
L 532.569131 -237.145362 
L 532.593675 -237.986106 
L 532.611575 -238.815018 
L 532.620099 -239.632427 
L 532.619023 -240.438649 
L 532.610743 -241.233985 
L 532.599671 -242.018726 
L 532.590677 -242.79315 
L 532.587113 -243.557524 
L 532.589562 -244.312107 
L 532.59611 -245.057146 
L 532.603902 -245.792879 
L 532.610784 -246.519536 
L 532.615882 -247.237338 
L 532.619071 -247.946498 
L 532.620382 -248.647223 
L 532.620135 -249.339709 
L 532.619389 -250.02415 
L 532.619671 -250.700729 
L 532.621909 -251.369625 
L 532.625676 -252.031011 
L 532.629579 -252.685054 
L 532.632331 -253.331914 
L 532.633351 -253.971748 
L 532.632534 -254.604706 
L 532.62981 -255.230936 
L 532.625226 -255.850578 
L 532.619498 -256.46377 
L 532.614263 -257.070644 
L 532.611493 -257.67133 
L 532.612451 -258.265952 
L 532.617101 -258.854631 
L 532.624387 -259.437486 
L 532.632917 -260.01463 
L 532.692161 -260.01463 
L 532.692161 -260.01463 
L 532.700692 -259.437486 
L 532.707978 -258.854631 
L 532.712628 -258.265952 
L 532.713586 -257.67133 
L 532.710816 -257.070644 
L 532.70558 -256.46377 
L 532.699853 -255.850578 
L 532.695269 -255.230936 
L 532.692544 -254.604706 
L 532.691727 -253.971748 
L 532.692748 -253.331914 
L 532.695499 -252.685054 
L 532.699403 -252.031011 
L 532.70317 -251.369625 
L 532.705408 -250.700729 
L 532.705689 -250.02415 
L 532.704943 -249.339709 
L 532.704697 -248.647223 
L 532.706007 -247.946498 
L 532.709197 -247.237338 
L 532.714294 -246.519536 
L 532.721176 -245.792879 
L 532.728968 -245.057146 
L 532.735516 -244.312107 
L 532.737966 -243.557524 
L 532.734402 -242.79315 
L 532.725407 -242.018726 
L 532.714335 -241.233985 
L 532.706056 -240.438649 
L 532.704979 -239.632427 
L 532.713503 -238.815018 
L 532.731403 -237.986106 
L 532.755947 -237.145362 
L 532.782501 -236.292446 
L 532.805735 -235.426998 
L 532.821316 -234.548645 
L 532.827335 -233.656996 
L 532.824786 -232.751642 
L 532.817163 -231.832157 
L 532.809454 -230.898091 
L 532.80649 -229.948974 
L 532.810972 -228.984315 
L 532.822443 -228.003594 
L 532.838236 -227.006268 
L 532.855762 -225.991766 
L 532.874444 -224.959485 
L 532.896154 -223.908791 
L 532.923947 -222.839014 
L 532.959467 -221.74945 
L 533.000312 -220.639353 
L 533.03972 -219.507932 
L 533.070109 -218.354354 
L 533.088494 -217.177733 
L 533.098989 -215.97713 
L 533.109452 -214.751546 
L 533.124753 -213.49992 
L 533.142597 -212.221121 
L 533.15569 -210.913944 
L 533.158625 -209.577099 
L 533.153943 -208.20921 
L 533.152415 -206.808799 
L 533.167055 -205.374282 
L 533.205426 -203.903958 
L 533.266253 -202.395991 
L 533.342718 -200.848405 
L 533.429094 -199.259061 
L 533.524866 -197.625643 
L 533.633455 -195.945637 
L 533.757272 -194.216306 
L 533.892915 -192.434667 
L 534.029987 -190.597456 
L 534.155941 -188.701095 
L 534.265745 -186.741647 
L 534.369529 -184.714771 
L 534.490096 -182.61566 
L 534.649851 -180.438975 
L 534.856942 -178.17876 
L 535.102249 -175.828348 
L 535.36966 -173.380241 
L 535.650538 -170.825963 
L 535.950165 -168.155886 
L 536.281862 -165.35901 
L 536.655528 -162.422689 
L 537.071378 -159.332285 
L 537.524526 -156.070727 
L 538.017276 -152.617941 
L 538.570298 -148.950097 
L 539.22497 -145.038616 
L 540.035994 -140.848814 
L 541.059617 -136.338027 
L 542.341375 -131.452963 
L 543.899712 -126.125845 
L 545.696233 -120.268637 
L 547.586894 -113.764066 
L 549.269201 -106.451047 
L 550.27998 -98.099707 
L 550.118442 -88.365631 
L 548.499787 -76.698285 
L 545.593828 -62.134546 
z
" style="stroke: #c1440e; stroke-opacity: 0.7"/>
    </defs>
    <g clip-path="url(#pae6ed833f4)">
     <use xlink:href="#m213a146359" x="0" y="294.560331" style="fill: #c1440e; fill-opacity: 0.7; stroke: #c1440e; stroke-opacity: 0.7"/>
    </g>
   </g>
   <g id="PolyCollection_4">
    <defs>
     <path id="m35dc5ebd83" d="M 592.324333 -62.083785 
L 566.960431 -62.083785 
L 563.595263 -76.113168 
L 562.024941 -87.435623 
L 562.330446 -96.928679 
L 563.845156 -105.102083 
L 565.758947 -112.278351 
L 567.552335 -118.674539 
L 569.038942 -124.443733 
L 570.225237 -129.697959 
L 571.194934 -134.521662 
L 572.041481 -138.980085 
L 572.820456 -143.124676 
L 573.539024 -146.996726 
L 574.187747 -150.629879 
L 574.770498 -154.051907 
L 575.298478 -157.286006 
L 575.76883 -160.351748 
L 576.164997 -163.265796 
L 576.47926 -166.042457 
L 576.727191 -168.694105 
L 576.939405 -171.231512 
L 577.144515 -173.664119 
L 577.357358 -176.000239 
L 577.57455 -178.247234 
L 577.779699 -180.411658 
L 577.958507 -182.499363 
L 578.111591 -184.515602 
L 578.251981 -186.465107 
L 578.390667 -188.352155 
L 578.524864 -190.180622 
L 578.63938 -191.954038 
L 578.719889 -193.67562 
L 578.766557 -195.348313 
L 578.795352 -196.974816 
L 578.826587 -198.557613 
L 578.872757 -200.09899 
L 578.935151 -201.601061 
L 579.007595 -203.065781 
L 579.081645 -204.494961 
L 579.150039 -205.890287 
L 579.207601 -207.253324 
L 579.251206 -208.585533 
L 579.281587 -209.888279 
L 579.304876 -211.162836 
L 579.328276 -212.410398 
L 579.352375 -213.632085 
L 579.37074 -214.828948 
L 579.378752 -216.001977 
L 579.380487 -217.152102 
L 579.385678 -218.280201 
L 579.401413 -219.387101 
L 579.427061 -220.473584 
L 579.455393 -221.54039 
L 579.477823 -222.588219 
L 579.489662 -223.617734 
L 579.492033 -224.629565 
L 579.490045 -225.624308 
L 579.489066 -226.602532 
L 579.491354 -227.564776 
L 579.495486 -228.511554 
L 579.499387 -229.443355 
L 579.503806 -230.360645 
L 579.512104 -231.263871 
L 579.526326 -232.153455 
L 579.5439 -233.029805 
L 579.558814 -233.893308 
L 579.566452 -234.744336 
L 579.56746 -235.583243 
L 579.566926 -236.410371 
L 579.569838 -237.226045 
L 579.577313 -238.030579 
L 579.58668 -238.824272 
L 579.59415 -239.607414 
L 579.597331 -240.38028 
L 579.596603 -241.143137 
L 579.595161 -241.89624 
L 579.597104 -242.639837 
L 579.604338 -243.374164 
L 579.615024 -244.099449 
L 579.625023 -244.815913 
L 579.630679 -245.523767 
L 579.630569 -246.223216 
L 579.625691 -246.914457 
L 579.618749 -247.597681 
L 579.612808 -248.273071 
L 579.609723 -248.940804 
L 579.609501 -249.601054 
L 579.61108 -250.253985 
L 579.613634 -250.899758 
L 579.617151 -251.538528 
L 579.621931 -252.170446 
L 579.627688 -252.795656 
L 579.633321 -253.414301 
L 579.637604 -254.026516 
L 579.639919 -254.632433 
L 579.640273 -255.232181 
L 579.638966 -255.825884 
L 579.636586 -256.413663 
L 579.634238 -256.995636 
L 579.633248 -257.571914 
L 579.651517 -257.571914 
L 579.651517 -257.571914 
L 579.650527 -256.995636 
L 579.648178 -256.413663 
L 579.645798 -255.825884 
L 579.644492 -255.232181 
L 579.644846 -254.632433 
L 579.64716 -254.026516 
L 579.651444 -253.414301 
L 579.657077 -252.795656 
L 579.662833 -252.170446 
L 579.667613 -251.538528 
L 579.67113 -250.899758 
L 579.673685 -250.253985 
L 579.675264 -249.601054 
L 579.675041 -248.940804 
L 579.671957 -248.273071 
L 579.666015 -247.597681 
L 579.659074 -246.914457 
L 579.654196 -246.223216 
L 579.654085 -245.523767 
L 579.659742 -244.815913 
L 579.669741 -244.099449 
L 579.680427 -243.374164 
L 579.68766 -242.639837 
L 579.689603 -241.89624 
L 579.688162 -241.143137 
L 579.687433 -240.38028 
L 579.690615 -239.607414 
L 579.698085 -238.824272 
L 579.707452 -238.030579 
L 579.714927 -237.226045 
L 579.717838 -236.410371 
L 579.717305 -235.583243 
L 579.718312 -234.744336 
L 579.725951 -233.893308 
L 579.740865 -233.029805 
L 579.758438 -232.153455 
L 579.77266 -231.263871 
L 579.780958 -230.360645 
L 579.785378 -229.443355 
L 579.789279 -228.511554 
L 579.793411 -227.564776 
L 579.795699 -226.602532 
L 579.79472 -225.624308 
L 579.792731 -224.629565 
L 579.795103 -223.617734 
L 579.806942 -222.588219 
L 579.829372 -221.54039 
L 579.857704 -220.473584 
L 579.883351 -219.387101 
L 579.899087 -218.280201 
L 579.904277 -217.152102 
L 579.906013 -216.001977 
L 579.914025 -214.828948 
L 579.93239 -213.632085 
L 579.956489 -212.410398 
L 579.979888 -211.162836 
L 580.003178 -209.888279 
L 580.033559 -208.585533 
L 580.077164 -207.253324 
L 580.134725 -205.890287 
L 580.20312 -204.494961 
L 580.27717 -203.065781 
L 580.349614 -201.601061 
L 580.412007 -200.09899 
L 580.458178 -198.557613 
L 580.489412 -196.974816 
L 580.518208 -195.348313 
L 580.564875 -193.67562 
L 580.645384 -191.954038 
L 580.7599 -190.180622 
L 580.894097 -188.352155 
L 581.032783 -186.465107 
L 581.173174 -184.515602 
L 581.326257 -182.499363 
L 581.505065 -180.411658 
L 581.710214 -178.247234 
L 581.927407 -176.000239 
L 582.140249 -173.664119 
L 582.345359 -171.231512 
L 582.557574 -168.694105 
L 582.805505 -166.042457 
L 583.119768 -163.265796 
L 583.515935 -160.351748 
L 583.986286 -157.286006 
L 584.514266 -154.051907 
L 585.097017 -150.629879 
L 585.74574 -146.996726 
L 586.464309 -143.124676 
L 587.243284 -138.980085 
L 588.089831 -134.521662 
L 589.059528 -129.697959 
L 590.245823 -124.443733 
L 591.73243 -118.674539 
L 593.525817 -112.278351 
L 595.439609 -105.102083 
L 596.954319 -96.928679 
L 597.259823 -87.435623 
L 595.689502 -76.113168 
L 592.324333 -62.083785 
z
" style="stroke: #c1440e; stroke-opacity: 0.7"/>
    </defs>
    <g clip-path="url(#pae6ed833f4)">
     <use xlink:href="#m35dc5ebd83" x="0" y="294.560331" style="fill: #c1440e; fill-opacity: 0.7; stroke: #c1440e; stroke-opacity: 0.7"/>
    </g>
   </g>
   <g id="PolyCollection_5">
    <defs>
     <path id="mc175527ee0" d="M 640.158824 -62.125024 
L 613.085627 -62.125024 
L 610.498814 -76.703951 
L 609.091006 -88.381024 
L 609.004784 -98.121864 
L 610.018708 -106.478178 
L 611.706134 -113.79501 
L 613.631986 -120.302596 
L 615.479173 -126.162249 
L 617.079818 -131.491389 
L 618.386497 -136.378153 
L 619.425838 -140.890389 
L 620.257518 -145.081441 
L 620.945299 -148.994011 
L 621.539957 -152.662813 
L 622.072139 -156.116449 
L 622.55287 -159.378764 
L 622.979511 -162.469848 
L 623.344897 -165.406783 
L 623.646673 -168.204216 
L 623.893362 -170.8748 
L 624.104614 -173.429542 
L 624.305307 -175.878076 
L 624.51599 -178.228881 
L 624.744325 -180.48946 
L 624.982301 -182.666483 
L 625.210938 -184.765907 
L 625.409612 -186.793076 
L 625.564495 -188.752797 
L 625.672207 -190.649414 
L 625.738614 -192.486865 
L 625.775208 -194.26873 
L 625.795392 -195.998274 
L 625.811453 -197.678481 
L 625.832222 -199.312089 
L 625.861539 -200.901613 
L 625.898057 -202.449369 
L 625.936892 -203.957497 
L 625.972812 -205.427976 
L 626.003535 -206.862639 
L 626.031176 -208.263189 
L 626.060808 -209.631212 
L 626.096959 -210.968184 
L 626.140259 -212.275483 
L 626.186415 -213.554398 
L 626.228271 -214.806135 
L 626.259753 -216.031826 
L 626.27917 -217.232532 
L 626.289737 -218.409252 
L 626.297258 -219.562925 
L 626.307001 -220.694436 
L 626.321938 -221.804621 
L 626.342817 -222.89427 
L 626.369008 -223.964128 
L 626.399045 -225.0149 
L 626.430807 -226.047257 
L 626.461788 -227.061833 
L 626.489572 -228.059229 
L 626.512203 -229.040018 
L 626.528388 -230.004744 
L 626.537783 -230.953925 
L 626.54138 -231.888053 
L 626.541537 -232.807599 
L 626.541292 -233.713011 
L 626.543239 -234.604716 
L 626.548694 -235.483124 
L 626.557584 -236.348625 
L 626.568878 -237.201594 
L 626.581139 -238.042387 
L 626.592914 -238.871348 
L 626.602988 -239.688806 
L 626.61055 -240.495074 
L 626.615218 -241.290455 
L 626.61685 -242.075239 
L 626.615267 -242.849706 
L 626.610157 -243.614122 
L 626.601406 -244.368745 
L 626.589736 -245.113823 
L 626.577108 -245.849595 
L 626.566294 -246.576289 
L 626.559605 -247.294128 
L 626.557586 -248.003324 
L 626.558769 -248.704084 
L 626.560776 -249.396605 
L 626.561929 -250.081079 
L 626.562092 -250.75769 
L 626.562202 -251.426618 
L 626.563096 -252.088035 
L 626.564671 -252.742108 
L 626.565973 -253.388998 
L 626.565988 -254.028861 
L 626.564422 -254.661848 
L 626.561881 -255.288106 
L 626.559469 -255.907775 
L 626.558245 -256.520994 
L 626.558906 -257.127894 
L 626.561713 -257.728606 
L 626.566502 -258.323253 
L 626.57281 -258.911957 
L 626.580094 -259.494836 
L 626.58791 -260.072004 
L 626.656541 -260.072004 
L 626.656541 -260.072004 
L 626.664356 -259.494836 
L 626.671641 -258.911957 
L 626.677948 -258.323253 
L 626.682738 -257.728606 
L 626.685544 -257.127894 
L 626.686206 -256.520994 
L 626.684982 -255.907775 
L 626.682569 -255.288106 
L 626.680029 -254.661848 
L 626.678462 -254.028861 
L 626.678478 -253.388998 
L 626.679779 -252.742108 
L 626.681355 -252.088035 
L 626.682249 -251.426618 
L 626.682359 -250.75769 
L 626.682521 -250.081079 
L 626.683675 -249.396605 
L 626.685682 -248.704084 
L 626.686864 -248.003324 
L 626.684846 -247.294128 
L 626.678157 -246.576289 
L 626.667343 -245.849595 
L 626.654715 -245.113823 
L 626.643045 -244.368745 
L 626.634293 -243.614122 
L 626.629183 -242.849706 
L 626.627601 -242.075239 
L 626.629233 -241.290455 
L 626.6339 -240.495074 
L 626.641463 -239.688806 
L 626.651537 -238.871348 
L 626.663312 -238.042387 
L 626.675572 -237.201594 
L 626.686867 -236.348625 
L 626.695756 -235.483124 
L 626.701212 -234.604716 
L 626.703159 -233.713011 
L 626.702914 -232.807599 
L 626.703071 -231.888053 
L 626.706667 -230.953925 
L 626.716063 -230.004744 
L 626.732248 -229.040018 
L 626.754878 -228.059229 
L 626.782662 -227.061833 
L 626.813644 -226.047257 
L 626.845405 -225.0149 
L 626.875443 -223.964128 
L 626.901634 -222.89427 
L 626.922513 -221.804621 
L 626.937449 -220.694436 
L 626.947193 -219.562925 
L 626.954713 -218.409252 
L 626.96528 -217.232532 
L 626.984698 -216.031826 
L 627.016179 -214.806135 
L 627.058036 -213.554398 
L 627.104192 -212.275483 
L 627.147492 -210.968184 
L 627.183643 -209.631212 
L 627.213274 -208.263189 
L 627.240915 -206.862639 
L 627.271639 -205.427976 
L 627.307559 -203.957497 
L 627.346393 -202.449369 
L 627.382911 -200.901613 
L 627.412229 -199.312089 
L 627.432998 -197.678481 
L 627.449058 -195.998274 
L 627.469242 -194.26873 
L 627.505837 -192.486865 
L 627.572243 -190.649414 
L 627.679956 -188.752797 
L 627.834839 -186.793076 
L 628.033513 -184.765907 
L 628.26215 -182.666483 
L 628.500126 -180.48946 
L 628.728461 -178.228881 
L 628.939143 -175.878076 
L 629.139836 -173.429542 
L 629.351088 -170.8748 
L 629.597778 -168.204216 
L 629.899553 -165.406783 
L 630.26494 -162.469848 
L 630.691581 -159.378764 
L 631.172312 -156.116449 
L 631.704494 -152.662813 
L 632.299151 -148.994011 
L 632.986933 -145.081441 
L 633.818612 -140.890389 
L 634.857954 -136.378153 
L 636.164633 -131.491389 
L 637.765277 -126.162249 
L 639.612465 -120.302596 
L 641.538317 -113.79501 
L 643.225743 -106.478178 
L 644.239666 -98.121864 
L 644.153445 -88.381024 
L 642.745636 -76.703951 
L 640.158824 -62.125024 
z
" style="stroke: #c1440e; stroke-opacity: 0.7"/>
    </defs>
    <g clip-path="url(#pae6ed833f4)">
     <use xlink:href="#mc175527ee0" x="0" y="294.560331" style="fill: #c1440e; fill-opacity: 0.7; stroke: #c1440e; stroke-opacity: 0.7"/>
    </g>
   </g>
   <g id="PolyCollection_6">
    <defs>
     <path id="m2aec9db980" d="M 687.905525 -62.140891 
L 659.298612 -62.140891 
L 657.919784 -71.241154 
L 656.878573 -79.121845 
L 656.22815 -86.07155 
L 655.984627 -92.287176 
L 656.127349 -97.909092 
L 656.604909 -103.040894 
L 657.345228 -107.761228 
L 658.267319 -112.131207 
L 659.292327 -116.199265 
L 660.352009 -120.004439 
L 661.393695 -123.578652 
L 662.381704 -126.948345 
L 663.295926 -130.135661 
L 664.128622 -133.159332 
L 664.880591 -136.035346 
L 665.557564 -138.777454 
L 666.167406 -141.397572 
L 666.718301 -143.906095 
L 667.217838 -146.31214 
L 667.672738 -148.623754 
L 668.088928 -150.84807 
L 668.471699 -152.991441 
L 668.82579 -155.059553 
L 669.155343 -157.057513 
L 669.463742 -158.989923 
L 669.753416 -160.860949 
L 670.025672 -162.67437 
L 670.280623 -164.433629 
L 670.517247 -166.141866 
L 670.733599 -167.801959 
L 670.92717 -169.416546 
L 671.095374 -170.988056 
L 671.236117 -172.518727 
L 671.348375 -174.01063 
L 671.432687 -175.465679 
L 671.491455 -176.885651 
L 671.528963 -178.272197 
L 671.551089 -179.626856 
L 671.564707 -180.951061 
L 671.576902 -182.246151 
L 671.59411 -183.513378 
L 671.621354 -184.753918 
L 671.661719 -185.96887 
L 671.716134 -187.159269 
L 671.78351 -188.326087 
L 671.861163 -189.470241 
L 671.945447 -190.592595 
L 672.032448 -191.693963 
L 672.118609 -192.775116 
L 672.201173 -193.836783 
L 672.278373 -194.879654 
L 672.349371 -195.904382 
L 672.414002 -196.911588 
L 672.472424 -197.901862 
L 672.524803 -198.875763 
L 672.571129 -199.833824 
L 672.61121 -200.776552 
L 672.644854 -201.70443 
L 672.672142 -202.617918 
L 672.693717 -203.517457 
L 672.710961 -204.403465 
L 672.725985 -205.276344 
L 672.741422 -206.136477 
L 672.760045 -206.984231 
L 672.7843 -207.819958 
L 672.815867 -208.643993 
L 672.855347 -209.456659 
L 672.902154 -210.258267 
L 672.954615 -211.049112 
L 673.010252 -211.82948 
L 673.066183 -212.599645 
L 673.119539 -213.359871 
L 673.167841 -214.11041 
L 673.209255 -214.851506 
L 673.242715 -215.583395 
L 673.267905 -216.306301 
L 673.285124 -217.020443 
L 673.295083 -217.726031 
L 673.298686 -218.423267 
L 673.296852 -219.112347 
L 673.290423 -219.793459 
L 673.280182 -220.466785 
L 673.266955 -221.132502 
L 673.251758 -221.79078 
L 673.235917 -222.441782 
L 673.221106 -223.085668 
L 673.209239 -223.722592 
L 673.202258 -224.352703 
L 673.201823 -224.976145 
L 673.209012 -225.593058 
L 673.224109 -226.203577 
L 673.246534 -226.807833 
L 673.274937 -227.405953 
L 673.307451 -227.998062 
L 673.342002 -228.584277 
L 673.376635 -229.164717 
L 673.409759 -229.739492 
L 673.440279 -230.308714 
L 673.467608 -230.872487 
L 673.736529 -230.872487 
L 673.736529 -230.872487 
L 673.763858 -230.308714 
L 673.794378 -229.739492 
L 673.827502 -229.164717 
L 673.862135 -228.584277 
L 673.896686 -227.998062 
L 673.929199 -227.405953 
L 673.957603 -226.807833 
L 673.980027 -226.203577 
L 673.995125 -225.593058 
L 674.002314 -224.976145 
L 674.001878 -224.352703 
L 673.994897 -223.722592 
L 673.983031 -223.085668 
L 673.968219 -222.441782 
L 673.952379 -221.79078 
L 673.937181 -221.132502 
L 673.923954 -220.466785 
L 673.913714 -219.793459 
L 673.907285 -219.112347 
L 673.905451 -218.423267 
L 673.909053 -217.726031 
L 673.919013 -217.020443 
L 673.936232 -216.306301 
L 673.961421 -215.583395 
L 673.994881 -214.851506 
L 674.036295 -214.11041 
L 674.084597 -213.359871 
L 674.137954 -212.599645 
L 674.193884 -211.82948 
L 674.249522 -211.049112 
L 674.301982 -210.258267 
L 674.34879 -209.456659 
L 674.38827 -208.643993 
L 674.419836 -207.819958 
L 674.444091 -206.984231 
L 674.462715 -206.136477 
L 674.478152 -205.276344 
L 674.493176 -204.403465 
L 674.510419 -203.517457 
L 674.531995 -202.617918 
L 674.559283 -201.70443 
L 674.592926 -200.776552 
L 674.633008 -199.833824 
L 674.679333 -198.875763 
L 674.731713 -197.901862 
L 674.790135 -196.911588 
L 674.854766 -195.904382 
L 674.925764 -194.879654 
L 675.002964 -193.836783 
L 675.085528 -192.775116 
L 675.171689 -191.693963 
L 675.25869 -190.592595 
L 675.342974 -189.470241 
L 675.420627 -188.326087 
L 675.488002 -187.159269 
L 675.542418 -185.96887 
L 675.582783 -184.753918 
L 675.610027 -183.513378 
L 675.627234 -182.246151 
L 675.639429 -180.951061 
L 675.653048 -179.626856 
L 675.675174 -178.272197 
L 675.712682 -176.885651 
L 675.771449 -175.465679 
L 675.855761 -174.01063 
L 675.968019 -172.518727 
L 676.108762 -170.988056 
L 676.276967 -169.416546 
L 676.470538 -167.801959 
L 676.68689 -166.141866 
L 676.923514 -164.433629 
L 677.178465 -162.67437 
L 677.450721 -160.860949 
L 677.740395 -158.989923 
L 678.048794 -157.057513 
L 678.378346 -155.059553 
L 678.732438 -152.991441 
L 679.115208 -150.84807 
L 679.531398 -148.623754 
L 679.986298 -146.31214 
L 680.485835 -143.906095 
L 681.036731 -141.397572 
L 681.646573 -138.777454 
L 682.323546 -136.035346 
L 683.075514 -133.159332 
L 683.908211 -130.135661 
L 684.822433 -126.948345 
L 685.810442 -123.578652 
L 686.852128 -120.004439 
L 687.91181 -116.199265 
L 688.936817 -112.131207 
L 689.858908 -107.761228 
L 690.599228 -103.040894 
L 691.076788 -97.909092 
L 691.219509 -92.287176 
L 690.975987 -86.07155 
L 690.325564 -79.121845 
L 689.284352 -71.241154 
L 687.905525 -62.140891 
z
" style="stroke: #c1440e; stroke-opacity: 0.7"/>
    </defs>
    <g clip-path="url(#pae6ed833f4)">
     <use xlink:href="#m2aec9db980" x="0" y="294.560331" style="fill: #c1440e; fill-opacity: 0.7; stroke: #c1440e; stroke-opacity: 0.7"/>
    </g>
   </g>
   <g id="matplotlib.axis_3">
    <g id="xtick_7">
     <g id="line2d_23">
      <g>
       <use xlink:href="#m6be1768b1f" x="438.702853" y="242.489528" style="stroke: #000000; stroke-width: 0.8"/>
      </g>
     </g>
     <g id="text_14">
      <text style="font: 10px 'DejaVu Sans', 'Bitstream Vera Sans', 'Computer Modern Sans Serif', 'Lucida Grande', 'Verdana', 'Geneva', 'Lucid', 'Arial', 'Helvetica', 'Avant Garde', sans-serif" transform="translate(386.864167 285.318405) rotate(-30)">neg_control</text>
     </g>
    </g>
    <g id="xtick_8">
     <g id="line2d_24">
      <g>
       <use xlink:href="#m6be1768b1f" x="485.682696" y="242.489528" style="stroke: #000000; stroke-width: 0.8"/>
      </g>
     </g>
     <g id="text_15">
      <text style="font: 10px 'DejaVu Sans', 'Bitstream Vera Sans', 'Computer Modern Sans Serif', 'Lucida Grande', 'Verdana', 'Geneva', 'Lucid', 'Arial', 'Helvetica', 'Avant Garde', sans-serif" transform="translate(457.91379 271.501999) rotate(-30)">S-UNT</text>
     </g>
    </g>
    <g id="xtick_9">
     <g id="line2d_25">
      <g>
       <use xlink:href="#m6be1768b1f" x="532.662539" y="242.489528" style="stroke: #000000; stroke-width: 0.8"/>
      </g>
     </g>
     <g id="text_16">
      <text style="font: 10px 'DejaVu Sans', 'Bitstream Vera Sans', 'Computer Modern Sans Serif', 'Lucida Grande', 'Verdana', 'Geneva', 'Lucid', 'Arial', 'Helvetica', 'Avant Garde', sans-serif" transform="translate(509.310363 268.951999) rotate(-30)">SLN1</text>
     </g>
    </g>
    <g id="xtick_10">
     <g id="line2d_26">
      <g>
       <use xlink:href="#m6be1768b1f" x="579.642382" y="242.489528" style="stroke: #000000; stroke-width: 0.8"/>
      </g>
     </g>
     <g id="text_17">
      <text style="font: 10px 'DejaVu Sans', 'Bitstream Vera Sans', 'Computer Modern Sans Serif', 'Lucida Grande', 'Verdana', 'Geneva', 'Lucid', 'Arial', 'Helvetica', 'Avant Garde', sans-serif" transform="translate(559.360537 267.179343) rotate(-30)">SLHi</text>
     </g>
    </g>
    <g id="xtick_11">
     <g id="line2d_27">
      <g>
       <use xlink:href="#m6be1768b1f" x="626.622225" y="242.489528" style="stroke: #000000; stroke-width: 0.8"/>
      </g>
     </g>
     <g id="text_18">
      <text style="font: 10px 'DejaVu Sans', 'Bitstream Vera Sans', 'Computer Modern Sans Serif', 'Lucida Grande', 'Verdana', 'Geneva', 'Lucid', 'Arial', 'Helvetica', 'Avant Garde', sans-serif" transform="translate(609.102189 265.584811) rotate(-30)">SE1</text>
     </g>
    </g>
    <g id="xtick_12">
     <g id="line2d_28">
      <g>
       <use xlink:href="#m6be1768b1f" x="673.602068" y="242.489528" style="stroke: #000000; stroke-width: 0.8"/>
      </g>
     </g>
     <g id="text_19">
      <text style="font: 10px 'DejaVu Sans', 'Bitstream Vera Sans', 'Computer Modern Sans Serif', 'Lucida Grande', 'Verdana', 'Geneva', 'Lucid', 'Arial', 'Helvetica', 'Avant Garde', sans-serif" transform="translate(656.082032 265.584811) rotate(-30)">SE2</text>
     </g>
    </g>
   </g>
   <g id="matplotlib.axis_4">
    <g id="ytick_6">
     <g id="line2d_29">
      <path d="M 407.578707 125.005013 
L 704.726214 125.005013 
" clip-path="url(#pae6ed833f4)" style="fill: none; stroke: #b0b0b0; stroke-opacity: 0.3; stroke-width: 0.8; stroke-linecap: square"/>
     </g>
     <g id="line2d_30">
      <g>
       <use xlink:href="#md993ca0ef5" x="407.578707" y="125.005013" style="stroke: #000000; stroke-width: 0.8"/>
      </g>
     </g>
     <g id="text_20">
      <!-- $\mathdefault{10^{1}}$ -->
      <g transform="translate(382.978707 128.804231)">
       <text>
        <tspan style="font: 10px 'DejaVu Sans'" x="0 6.362305" y="-0.06406250000000036">10</tspan>
        <tspan style="font: 7px 'DejaVu Sans'" x="12.820312" y="-3.8921875000000004">1</tspan>
       </text>
      </g>
     </g>
    </g>
    <g id="ytick_7">
     <g id="line2d_31">
      <path d="M 407.578707 219.810407 
L 704.726214 219.810407 
" clip-path="url(#pae6ed833f4)" style="fill: none; stroke: #b0b0b0; stroke-opacity: 0.3; stroke-width: 0.8; stroke-linecap: square"/>
     </g>
     <g id="line2d_32">
      <defs>
       <path id="m7eae87a324" d="M 0 0 
L -2 0 
" style="stroke: #000000; stroke-width: 0.6"/>
      </defs>
      <g>
       <use xlink:href="#m7eae87a324" x="407.578707" y="219.810407" style="stroke: #000000; stroke-width: 0.6"/>
      </g>
     </g>
    </g>
    <g id="ytick_8">
     <g id="line2d_33">
      <path d="M 407.578707 195.926118 
L 704.726214 195.926118 
" clip-path="url(#pae6ed833f4)" style="fill: none; stroke: #b0b0b0; stroke-opacity: 0.3; stroke-width: 0.8; stroke-linecap: square"/>
     </g>
     <g id="line2d_34">
      <g>
       <use xlink:href="#m7eae87a324" x="407.578707" y="195.926118" style="stroke: #000000; stroke-width: 0.6"/>
      </g>
     </g>
    </g>
    <g id="ytick_9">
     <g id="line2d_35">
      <path d="M 407.578707 178.979946 
L 704.726214 178.979946 
" clip-path="url(#pae6ed833f4)" style="fill: none; stroke: #b0b0b0; stroke-opacity: 0.3; stroke-width: 0.8; stroke-linecap: square"/>
     </g>
     <g id="line2d_36">
      <g>
       <use xlink:href="#m7eae87a324" x="407.578707" y="178.979946" style="stroke: #000000; stroke-width: 0.6"/>
      </g>
     </g>
    </g>
    <g id="ytick_10">
     <g id="line2d_37">
      <path d="M 407.578707 165.835473 
L 704.726214 165.835473 
" clip-path="url(#pae6ed833f4)" style="fill: none; stroke: #b0b0b0; stroke-opacity: 0.3; stroke-width: 0.8; stroke-linecap: square"/>
     </g>
     <g id="line2d_38">
      <g>
       <use xlink:href="#m7eae87a324" x="407.578707" y="165.835473" style="stroke: #000000; stroke-width: 0.6"/>
      </g>
     </g>
    </g>
    <g id="ytick_11">
     <g id="line2d_39">
      <path d="M 407.578707 155.095657 
L 704.726214 155.095657 
" clip-path="url(#pae6ed833f4)" style="fill: none; stroke: #b0b0b0; stroke-opacity: 0.3; stroke-width: 0.8; stroke-linecap: square"/>
     </g>
     <g id="line2d_40">
      <g>
       <use xlink:href="#m7eae87a324" x="407.578707" y="155.095657" style="stroke: #000000; stroke-width: 0.6"/>
      </g>
     </g>
    </g>
    <g id="ytick_12">
     <g id="line2d_41">
      <path d="M 407.578707 146.015272 
L 704.726214 146.015272 
" clip-path="url(#pae6ed833f4)" style="fill: none; stroke: #b0b0b0; stroke-opacity: 0.3; stroke-width: 0.8; stroke-linecap: square"/>
     </g>
     <g id="line2d_42">
      <g>
       <use xlink:href="#m7eae87a324" x="407.578707" y="146.015272" style="stroke: #000000; stroke-width: 0.6"/>
      </g>
     </g>
    </g>
    <g id="ytick_13">
     <g id="line2d_43">
      <path d="M 407.578707 138.149485 
L 704.726214 138.149485 
" clip-path="url(#pae6ed833f4)" style="fill: none; stroke: #b0b0b0; stroke-opacity: 0.3; stroke-width: 0.8; stroke-linecap: square"/>
     </g>
     <g id="line2d_44">
      <g>
       <use xlink:href="#m7eae87a324" x="407.578707" y="138.149485" style="stroke: #000000; stroke-width: 0.6"/>
      </g>
     </g>
    </g>
    <g id="ytick_14">
     <g id="line2d_45">
      <path d="M 407.578707 131.211369 
L 704.726214 131.211369 
" clip-path="url(#pae6ed833f4)" style="fill: none; stroke: #b0b0b0; stroke-opacity: 0.3; stroke-width: 0.8; stroke-linecap: square"/>
     </g>
     <g id="line2d_46">
      <g>
       <use xlink:href="#m7eae87a324" x="407.578707" y="131.211369" style="stroke: #000000; stroke-width: 0.6"/>
      </g>
     </g>
    </g>
    <g id="ytick_15">
     <g id="line2d_47">
      <path d="M 407.578707 84.174552 
L 704.726214 84.174552 
" clip-path="url(#pae6ed833f4)" style="fill: none; stroke: #b0b0b0; stroke-opacity: 0.3; stroke-width: 0.8; stroke-linecap: square"/>
     </g>
     <g id="line2d_48">
      <g>
       <use xlink:href="#m7eae87a324" x="407.578707" y="84.174552" style="stroke: #000000; stroke-width: 0.6"/>
      </g>
     </g>
    </g>
    <g id="ytick_16">
     <g id="line2d_49">
      <path d="M 407.578707 60.290263 
L 704.726214 60.290263 
" clip-path="url(#pae6ed833f4)" style="fill: none; stroke: #b0b0b0; stroke-opacity: 0.3; stroke-width: 0.8; stroke-linecap: square"/>
     </g>
     <g id="line2d_50">
      <g>
       <use xlink:href="#m7eae87a324" x="407.578707" y="60.290263" style="stroke: #000000; stroke-width: 0.6"/>
      </g>
     </g>
    </g>
    <g id="ytick_17">
     <g id="line2d_51">
      <path d="M 407.578707 43.344091 
L 704.726214 43.344091 
" clip-path="url(#pae6ed833f4)" style="fill: none; stroke: #b0b0b0; stroke-opacity: 0.3; stroke-width: 0.8; stroke-linecap: square"/>
     </g>
     <g id="line2d_52">
      <g>
       <use xlink:href="#m7eae87a324" x="407.578707" y="43.344091" style="stroke: #000000; stroke-width: 0.6"/>
      </g>
     </g>
    </g>
    <g id="ytick_18">
     <g id="line2d_53">
      <path d="M 407.578707 30.199619 
L 704.726214 30.199619 
" clip-path="url(#pae6ed833f4)" style="fill: none; stroke: #b0b0b0; stroke-opacity: 0.3; stroke-width: 0.8; stroke-linecap: square"/>
     </g>
     <g id="line2d_54">
      <g>
       <use xlink:href="#m7eae87a324" x="407.578707" y="30.199619" style="stroke: #000000; stroke-width: 0.6"/>
      </g>
     </g>
    </g>
    <g id="text_21">
     <text style="font: 10px 'DejaVu Sans', 'Bitstream Vera Sans', 'Computer Modern Sans Serif', 'Lucida Grande', 'Verdana', 'Geneva', 'Lucid', 'Arial', 'Helvetica', 'Avant Garde', sans-serif; text-anchor: middle" x="376.89902" y="132.403826" transform="rotate(-90 376.89902 132.403826)">blob major axis (µm), log scale</text>
    </g>
   </g>
   <g id="LineCollection_1">
    <path d="M 429.894133 176.48439 
L 447.511574 176.48439 
" clip-path="url(#pae6ed833f4)" style="fill: none; stroke: #1f77b4; stroke-width: 1.5"/>
    <path d="M 476.873976 152.948988 
L 494.491417 152.948988 
" clip-path="url(#pae6ed833f4)" style="fill: none; stroke: #1f77b4; stroke-width: 1.5"/>
    <path d="M 523.853819 155.039358 
L 541.47126 155.039358 
" clip-path="url(#pae6ed833f4)" style="fill: none; stroke: #1f77b4; stroke-width: 1.5"/>
    <path d="M 570.833662 157.408067 
L 588.451103 157.408067 
" clip-path="url(#pae6ed833f4)" style="fill: none; stroke: #1f77b4; stroke-width: 1.5"/>
    <path d="M 617.813505 157.807572 
L 635.430946 157.807572 
" clip-path="url(#pae6ed833f4)" style="fill: none; stroke: #1f77b4; stroke-width: 1.5"/>
    <path d="M 664.793348 158.443058 
L 682.410789 158.443058 
" clip-path="url(#pae6ed833f4)" style="fill: none; stroke: #1f77b4; stroke-width: 1.5"/>
   </g>
   <g id="LineCollection_2">
    <path d="M 429.894133 32.653799 
L 447.511574 32.653799 
" clip-path="url(#pae6ed833f4)" style="fill: none; stroke: #1f77b4; stroke-width: 1.5"/>
    <path d="M 476.873976 32.325916 
L 494.491417 32.325916 
" clip-path="url(#pae6ed833f4)" style="fill: none; stroke: #1f77b4; stroke-width: 1.5"/>
    <path d="M 523.853819 34.5457 
L 541.47126 34.5457 
" clip-path="url(#pae6ed833f4)" style="fill: none; stroke: #1f77b4; stroke-width: 1.5"/>
    <path d="M 570.833662 36.988417 
L 588.451103 36.988417 
" clip-path="url(#pae6ed833f4)" style="fill: none; stroke: #1f77b4; stroke-width: 1.5"/>
    <path d="M 617.813505 34.488327 
L 635.430946 34.488327 
" clip-path="url(#pae6ed833f4)" style="fill: none; stroke: #1f77b4; stroke-width: 1.5"/>
    <path d="M 664.793348 63.687844 
L 682.410789 63.687844 
" clip-path="url(#pae6ed833f4)" style="fill: none; stroke: #1f77b4; stroke-width: 1.5"/>
   </g>
   <g id="LineCollection_3">
    <path d="M 429.894133 232.46173 
L 447.511574 232.46173 
" clip-path="url(#pae6ed833f4)" style="fill: none; stroke: #1f77b4; stroke-width: 1.5"/>
    <path d="M 476.873976 232.481737 
L 494.491417 232.481737 
" clip-path="url(#pae6ed833f4)" style="fill: none; stroke: #1f77b4; stroke-width: 1.5"/>
    <path d="M 523.853819 232.425785 
L 541.47126 232.425785 
" clip-path="url(#pae6ed833f4)" style="fill: none; stroke: #1f77b4; stroke-width: 1.5"/>
    <path d="M 570.833662 232.476545 
L 588.451103 232.476545 
" clip-path="url(#pae6ed833f4)" style="fill: none; stroke: #1f77b4; stroke-width: 1.5"/>
    <path d="M 617.813505 232.435307 
L 635.430946 232.435307 
" clip-path="url(#pae6ed833f4)" style="fill: none; stroke: #1f77b4; stroke-width: 1.5"/>
    <path d="M 664.793348 232.419439 
L 682.410789 232.419439 
" clip-path="url(#pae6ed833f4)" style="fill: none; stroke: #1f77b4; stroke-width: 1.5"/>
   </g>
   <g id="LineCollection_4">
    <path d="M 438.702853 232.46173 
L 438.702853 32.653799 
" clip-path="url(#pae6ed833f4)" style="fill: none; stroke: #1f77b4; stroke-width: 1.5"/>
    <path d="M 485.682696 232.481737 
L 485.682696 32.325916 
" clip-path="url(#pae6ed833f4)" style="fill: none; stroke: #1f77b4; stroke-width: 1.5"/>
    <path d="M 532.662539 232.425785 
L 532.662539 34.5457 
" clip-path="url(#pae6ed833f4)" style="fill: none; stroke: #1f77b4; stroke-width: 1.5"/>
    <path d="M 579.642382 232.476545 
L 579.642382 36.988417 
" clip-path="url(#pae6ed833f4)" style="fill: none; stroke: #1f77b4; stroke-width: 1.5"/>
    <path d="M 626.622225 232.435307 
L 626.622225 34.488327 
" clip-path="url(#pae6ed833f4)" style="fill: none; stroke: #1f77b4; stroke-width: 1.5"/>
    <path d="M 673.602068 232.419439 
L 673.602068 63.687844 
" clip-path="url(#pae6ed833f4)" style="fill: none; stroke: #1f77b4; stroke-width: 1.5"/>
   </g>
   <g id="patch_8">
    <path d="M 407.578707 242.489528 
L 407.578707 22.318125 
" style="fill: none; stroke: #000000; stroke-width: 0.8; stroke-linejoin: miter; stroke-linecap: square"/>
   </g>
   <g id="patch_9">
    <path d="M 704.726214 242.489528 
L 704.726214 22.318125 
" style="fill: none; stroke: #000000; stroke-width: 0.8; stroke-linejoin: miter; stroke-linecap: square"/>
   </g>
   <g id="patch_10">
    <path d="M 407.578707 242.489528 
L 704.726214 242.489528 
" style="fill: none; stroke: #000000; stroke-width: 0.8; stroke-linejoin: miter; stroke-linecap: square"/>
   </g>
   <g id="patch_11">
    <path d="M 407.578707 22.318125 
L 704.726214 22.318125 
" style="fill: none; stroke: #000000; stroke-width: 0.8; stroke-linejoin: miter; stroke-linecap: square"/>
   </g>
   <g id="text_22">
    <text style="font: 12px 'DejaVu Sans', 'Bitstream Vera Sans', 'Computer Modern Sans Serif', 'Lucida Grande', 'Verdana', 'Geneva', 'Lucid', 'Arial', 'Helvetica', 'Avant Garde', sans-serif; text-anchor: middle" x="556.152461" y="16.318125" transform="rotate(-0 556.152461 16.318125)">F — per-blob fiber length</text>
   </g>
  </g>
  <g id="axes_3">
   <g id="patch_12">
    <path d="M 765.826214 242.489528 
L 1062.973722 242.489528 
L 1062.973722 22.318125 
L 765.826214 22.318125 
z
" style="fill: #ffffff"/>
   </g>
   <g id="matplotlib.axis_5">
    <g id="xtick_13">
     <g id="line2d_55">
      <g>
       <use xlink:href="#m6be1768b1f" x="779.332919" y="242.489528" style="stroke: #000000; stroke-width: 0.8"/>
      </g>
     </g>
     <g id="text_23">
      <text style="font: 10px 'DejaVu Sans', 'Bitstream Vera Sans', 'Computer Modern Sans Serif', 'Lucida Grande', 'Verdana', 'Geneva', 'Lucid', 'Arial', 'Helvetica', 'Avant Garde', sans-serif" transform="translate(727.494233 285.318405) rotate(-30)">neg_control</text>
     </g>
    </g>
    <g id="xtick_14">
     <g id="line2d_56">
      <g>
       <use xlink:href="#m6be1768b1f" x="833.359739" y="242.489528" style="stroke: #000000; stroke-width: 0.8"/>
      </g>
     </g>
     <g id="text_24">
      <text style="font: 10px 'DejaVu Sans', 'Bitstream Vera Sans', 'Computer Modern Sans Serif', 'Lucida Grande', 'Verdana', 'Geneva', 'Lucid', 'Arial', 'Helvetica', 'Avant Garde', sans-serif" transform="translate(805.590833 271.501999) rotate(-30)">S-UNT</text>
     </g>
    </g>
    <g id="xtick_15">
     <g id="line2d_57">
      <g>
       <use xlink:href="#m6be1768b1f" x="887.386558" y="242.489528" style="stroke: #000000; stroke-width: 0.8"/>
      </g>
     </g>
     <g id="text_25">
      <text style="font: 10px 'DejaVu Sans', 'Bitstream Vera Sans', 'Computer Modern Sans Serif', 'Lucida Grande', 'Verdana', 'Geneva', 'Lucid', 'Arial', 'Helvetica', 'Avant Garde', sans-serif" transform="translate(864.034382 268.951999) rotate(-30)">SLN1</text>
     </g>
    </g>
    <g id="xtick_16">
     <g id="line2d_58">
      <g>
       <use xlink:href="#m6be1768b1f" x="941.413378" y="242.489528" style="stroke: #000000; stroke-width: 0.8"/>
      </g>
     </g>
     <g id="text_26">
      <text style="font: 10px 'DejaVu Sans', 'Bitstream Vera Sans', 'Computer Modern Sans Serif', 'Lucida Grande', 'Verdana', 'Geneva', 'Lucid', 'Arial', 'Helvetica', 'Avant Garde', sans-serif" transform="translate(921.131532 267.179343) rotate(-30)">SLHi</text>
     </g>
    </g>
    <g id="xtick_17">
     <g id="line2d_59">
      <g>
       <use xlink:href="#m6be1768b1f" x="995.440197" y="242.489528" style="stroke: #000000; stroke-width: 0.8"/>
      </g>
     </g>
     <g id="text_27">
      <text style="font: 10px 'DejaVu Sans', 'Bitstream Vera Sans', 'Computer Modern Sans Serif', 'Lucida Grande', 'Verdana', 'Geneva', 'Lucid', 'Arial', 'Helvetica', 'Avant Garde', sans-serif" transform="translate(977.920161 265.584811) rotate(-30)">SE1</text>
     </g>
    </g>
    <g id="xtick_18">
     <g id="line2d_60">
      <g>
       <use xlink:href="#m6be1768b1f" x="1049.467017" y="242.489528" style="stroke: #000000; stroke-width: 0.8"/>
      </g>
     </g>
     <g id="text_28">
      <text style="font: 10px 'DejaVu Sans', 'Bitstream Vera Sans', 'Computer Modern Sans Serif', 'Lucida Grande', 'Verdana', 'Geneva', 'Lucid', 'Arial', 'Helvetica', 'Avant Garde', sans-serif" transform="translate(1031.94698 265.584811) rotate(-30)">SE2</text>
     </g>
    </g>
   </g>
   <g id="matplotlib.axis_6">
    <g id="ytick_19">
     <g id="line2d_61">
      <path d="M 765.826214 237.903453 
L 1062.973722 237.903453 
" clip-path="url(#p84765e2829)" style="fill: none; stroke: #b0b0b0; stroke-opacity: 0.3; stroke-width: 0.8; stroke-linecap: square"/>
     </g>
     <g id="line2d_62">
      <g>
       <use xlink:href="#md993ca0ef5" x="765.826214" y="237.903453" style="stroke: #000000; stroke-width: 0.8"/>
      </g>
     </g>
     <g id="text_29">
      <text style="font: 10px 'DejaVu Sans', 'Bitstream Vera Sans', 'Computer Modern Sans Serif', 'Lucida Grande', 'Verdana', 'Geneva', 'Lucid', 'Arial', 'Helvetica', 'Avant Garde', sans-serif; text-anchor: end" x="758.826214" y="241.702672" transform="rotate(-0 758.826214 241.702672)">0.100</text>
     </g>
    </g>
    <g id="ytick_20">
     <g id="line2d_63">
      <path d="M 765.826214 209.367984 
L 1062.973722 209.367984 
" clip-path="url(#p84765e2829)" style="fill: none; stroke: #b0b0b0; stroke-opacity: 0.3; stroke-width: 0.8; stroke-linecap: square"/>
     </g>
     <g id="line2d_64">
      <g>
       <use xlink:href="#md993ca0ef5" x="765.826214" y="209.367984" style="stroke: #000000; stroke-width: 0.8"/>
      </g>
     </g>
     <g id="text_30">
      <text style="font: 10px 'DejaVu Sans', 'Bitstream Vera Sans', 'Computer Modern Sans Serif', 'Lucida Grande', 'Verdana', 'Geneva', 'Lucid', 'Arial', 'Helvetica', 'Avant Garde', sans-serif; text-anchor: end" x="758.826214" y="213.167203" transform="rotate(-0 758.826214 213.167203)">0.125</text>
     </g>
    </g>
    <g id="ytick_21">
     <g id="line2d_65">
      <path d="M 765.826214 180.832515 
L 1062.973722 180.832515 
" clip-path="url(#p84765e2829)" style="fill: none; stroke: #b0b0b0; stroke-opacity: 0.3; stroke-width: 0.8; stroke-linecap: square"/>
     </g>
     <g id="line2d_66">
      <g>
       <use xlink:href="#md993ca0ef5" x="765.826214" y="180.832515" style="stroke: #000000; stroke-width: 0.8"/>
      </g>
     </g>
     <g id="text_31">
      <text style="font: 10px 'DejaVu Sans', 'Bitstream Vera Sans', 'Computer Modern Sans Serif', 'Lucida Grande', 'Verdana', 'Geneva', 'Lucid', 'Arial', 'Helvetica', 'Avant Garde', sans-serif; text-anchor: end" x="758.826214" y="184.631733" transform="rotate(-0 758.826214 184.631733)">0.150</text>
     </g>
    </g>
    <g id="ytick_22">
     <g id="line2d_67">
      <path d="M 765.826214 152.297045 
L 1062.973722 152.297045 
" clip-path="url(#p84765e2829)" style="fill: none; stroke: #b0b0b0; stroke-opacity: 0.3; stroke-width: 0.8; stroke-linecap: square"/>
     </g>
     <g id="line2d_68">
      <g>
       <use xlink:href="#md993ca0ef5" x="765.826214" y="152.297045" style="stroke: #000000; stroke-width: 0.8"/>
      </g>
     </g>
     <g id="text_32">
      <text style="font: 10px 'DejaVu Sans', 'Bitstream Vera Sans', 'Computer Modern Sans Serif', 'Lucida Grande', 'Verdana', 'Geneva', 'Lucid', 'Arial', 'Helvetica', 'Avant Garde', sans-serif; text-anchor: end" x="758.826214" y="156.096264" transform="rotate(-0 758.826214 156.096264)">0.175</text>
     </g>
    </g>
    <g id="ytick_23">
     <g id="line2d_69">
      <path d="M 765.826214 123.761576 
L 1062.973722 123.761576 
" clip-path="url(#p84765e2829)" style="fill: none; stroke: #b0b0b0; stroke-opacity: 0.3; stroke-width: 0.8; stroke-linecap: square"/>
     </g>
     <g id="line2d_70">
      <g>
       <use xlink:href="#md993ca0ef5" x="765.826214" y="123.761576" style="stroke: #000000; stroke-width: 0.8"/>
      </g>
     </g>
     <g id="text_33">
      <text style="font: 10px 'DejaVu Sans', 'Bitstream Vera Sans', 'Computer Modern Sans Serif', 'Lucida Grande', 'Verdana', 'Geneva', 'Lucid', 'Arial', 'Helvetica', 'Avant Garde', sans-serif; text-anchor: end" x="758.826214" y="127.560795" transform="rotate(-0 758.826214 127.560795)">0.200</text>
     </g>
    </g>
    <g id="ytick_24">
     <g id="line2d_71">
      <path d="M 765.826214 95.226107 
L 1062.973722 95.226107 
" clip-path="url(#p84765e2829)" style="fill: none; stroke: #b0b0b0; stroke-opacity: 0.3; stroke-width: 0.8; stroke-linecap: square"/>
     </g>
     <g id="line2d_72">
      <g>
       <use xlink:href="#md993ca0ef5" x="765.826214" y="95.226107" style="stroke: #000000; stroke-width: 0.8"/>
      </g>
     </g>
     <g id="text_34">
      <text style="font: 10px 'DejaVu Sans', 'Bitstream Vera Sans', 'Computer Modern Sans Serif', 'Lucida Grande', 'Verdana', 'Geneva', 'Lucid', 'Arial', 'Helvetica', 'Avant Garde', sans-serif; text-anchor: end" x="758.826214" y="99.025325" transform="rotate(-0 758.826214 99.025325)">0.225</text>
     </g>
    </g>
    <g id="ytick_25">
     <g id="line2d_73">
      <path d="M 765.826214 66.690637 
L 1062.973722 66.690637 
" clip-path="url(#p84765e2829)" style="fill: none; stroke: #b0b0b0; stroke-opacity: 0.3; stroke-width: 0.8; stroke-linecap: square"/>
     </g>
     <g id="line2d_74">
      <g>
       <use xlink:href="#md993ca0ef5" x="765.826214" y="66.690637" style="stroke: #000000; stroke-width: 0.8"/>
      </g>
     </g>
     <g id="text_35">
      <text style="font: 10px 'DejaVu Sans', 'Bitstream Vera Sans', 'Computer Modern Sans Serif', 'Lucida Grande', 'Verdana', 'Geneva', 'Lucid', 'Arial', 'Helvetica', 'Avant Garde', sans-serif; text-anchor: end" x="758.826214" y="70.489856" transform="rotate(-0 758.826214 70.489856)">0.250</text>
     </g>
    </g>
    <g id="ytick_26">
     <g id="line2d_75">
      <path d="M 765.826214 38.155168 
L 1062.973722 38.155168 
" clip-path="url(#p84765e2829)" style="fill: none; stroke: #b0b0b0; stroke-opacity: 0.3; stroke-width: 0.8; stroke-linecap: square"/>
     </g>
     <g id="line2d_76">
      <g>
       <use xlink:href="#md993ca0ef5" x="765.826214" y="38.155168" style="stroke: #000000; stroke-width: 0.8"/>
      </g>
     </g>
     <g id="text_36">
      <text style="font: 10px 'DejaVu Sans', 'Bitstream Vera Sans', 'Computer Modern Sans Serif', 'Lucida Grande', 'Verdana', 'Geneva', 'Lucid', 'Arial', 'Helvetica', 'Avant Garde', sans-serif; text-anchor: end" x="758.826214" y="41.954387" transform="rotate(-0 758.826214 41.954387)">0.275</text>
     </g>
    </g>
    <g id="text_37">
     <text style="font: 10px 'DejaVu Sans', 'Bitstream Vera Sans', 'Computer Modern Sans Serif', 'Lucida Grande', 'Verdana', 'Geneva', 'Lucid', 'Arial', 'Helvetica', 'Avant Garde', sans-serif; text-anchor: middle" x="724.118402" y="132.403826" transform="rotate(-90 724.118402 132.403826)">aspect ratio (minor / major)</text>
    </g>
   </g>
   <g id="line2d_77">
    <path d="M 779.332919 177.956269 
L 779.332919 32.325916 
" clip-path="url(#p84765e2829)" style="fill: none; stroke: #444444; stroke-width: 1.4; stroke-linecap: square"/>
   </g>
   <g id="line2d_78">
    <path d="M 833.359739 222.92608 
L 833.359739 67.050049 
" clip-path="url(#p84765e2829)" style="fill: none; stroke: #444444; stroke-width: 1.4; stroke-linecap: square"/>
   </g>
   <g id="line2d_79">
    <path d="M 887.386558 222.211179 
L 887.386558 69.839206 
" clip-path="url(#p84765e2829)" style="fill: none; stroke: #444444; stroke-width: 1.4; stroke-linecap: square"/>
   </g>
   <g id="line2d_80">
    <path d="M 941.413378 218.977432 
L 941.413378 60.651889 
" clip-path="url(#p84765e2829)" style="fill: none; stroke: #444444; stroke-width: 1.4; stroke-linecap: square"/>
   </g>
   <g id="line2d_81">
    <path d="M 995.440197 221.452552 
L 995.440197 69.385443 
" clip-path="url(#p84765e2829)" style="fill: none; stroke: #444444; stroke-width: 1.4; stroke-linecap: square"/>
   </g>
   <g id="line2d_82">
    <path d="M 1049.467017 232.481737 
L 1049.467017 77.024531 
" clip-path="url(#p84765e2829)" style="fill: none; stroke: #444444; stroke-width: 1.4; stroke-linecap: square"/>
   </g>
   <g id="patch_13">
    <path d="M 765.826214 242.489528 
L 765.826214 22.318125 
" style="fill: none; stroke: #000000; stroke-width: 0.8; stroke-linejoin: miter; stroke-linecap: square"/>
   </g>
   <g id="patch_14">
    <path d="M 1062.973722 242.489528 
L 1062.973722 22.318125 
" style="fill: none; stroke: #000000; stroke-width: 0.8; stroke-linejoin: miter; stroke-linecap: square"/>
   </g>
   <g id="patch_15">
    <path d="M 765.826214 242.489528 
L 1062.973722 242.489528 
" style="fill: none; stroke: #000000; stroke-width: 0.8; stroke-linejoin: miter; stroke-linecap: square"/>
   </g>
   <g id="patch_16">
    <path d="M 765.826214 22.318125 
L 1062.973722 22.318125 
" style="fill: none; stroke: #000000; stroke-width: 0.8; stroke-linejoin: miter; stroke-linecap: square"/>
   </g>
   <g id="text_38">
    <text style="font: 12px 'DejaVu Sans', 'Bitstream Vera Sans', 'Computer Modern Sans Serif', 'Lucida Grande', 'Verdana', 'Geneva', 'Lucid', 'Arial', 'Helvetica', 'Avant Garde', sans-serif; text-anchor: middle" x="914.399968" y="16.318125" transform="rotate(-0 914.399968 16.318125)">F — fiber thickness (lower = thinner)</text>
   </g>
   <g id="PathCollection_7">
    <g clip-path="url(#p84765e2829)">
     <use xlink:href="#m1c42a40c44" x="779.332919" y="96.317113" style="fill: #c1440e; stroke: #ffffff; stroke-width: 0.5"/>
    </g>
   </g>
   <g id="PathCollection_8">
    <g clip-path="url(#p84765e2829)">
     <use xlink:href="#m1c42a40c44" x="833.359739" y="132.642767" style="fill: #c1440e; stroke: #ffffff; stroke-width: 0.5"/>
    </g>
   </g>
   <g id="PathCollection_9">
    <g clip-path="url(#p84765e2829)">
     <use xlink:href="#m1c42a40c44" x="887.386558" y="134.804305" style="fill: #c1440e; stroke: #ffffff; stroke-width: 0.5"/>
    </g>
   </g>
   <g id="PathCollection_10">
    <g clip-path="url(#p84765e2829)">
     <use xlink:href="#m1c42a40c44" x="941.413378" y="129.115121" style="fill: #c1440e; stroke: #ffffff; stroke-width: 0.5"/>
    </g>
   </g>
   <g id="PathCollection_11">
    <g clip-path="url(#p84765e2829)">
     <use xlink:href="#m1c42a40c44" x="995.440197" y="134.878033" style="fill: #c1440e; stroke: #ffffff; stroke-width: 0.5"/>
    </g>
   </g>
   <g id="PathCollection_12">
    <g clip-path="url(#p84765e2829)">
     <use xlink:href="#m1c42a40c44" x="1049.467017" y="146.473452" style="fill: #c1440e; stroke: #ffffff; stroke-width: 0.5"/>
    </g>
   </g>
  </g>
 </g>
 <defs>
  <clipPath id="pe3ed9c4a64">
   <rect x="49.3312" y="22.318125" width="297.147507" height="220.171403"/>
  </clipPath>
  <clipPath id="pae6ed833f4">
   <rect x="407.578707" y="22.318125" width="297.147507" height="220.171403"/>
  </clipPath>
  <clipPath id="p84765e2829">
   <rect x="765.826214" y="22.318125" width="297.147507" height="220.171403"/>
  </clipPath>
 </defs>
</svg>
